<?xml version="1.0" encoding="UTF-8" standalone="no"?><!DOCTYPE svg PUBLIC "-//W3C//DTD SVG 1.1//EN" "http://www.w3.org/Graphics/SVG/1.1/DTD/svg11.dtd"><svg width="100%" height="100%" viewBox="0 0 288 288" version="1.1" xmlns="http://www.w3.org/2000/svg" xmlns:xlink="http://www.w3.org/1999/xlink" xml:space="preserve" xmlns:serif="http://www.serif.com/" style="fill-rule:evenodd;clip-rule:evenodd;stroke-linejoin:round;stroke-miterlimit:2;"><g><rect x="-0" y="0" width="287.203" height="287.202" style="fill:#202c2d;"/><g><path d="M262.759,72.198c-7.079,-24.138 -75.48,-37.19 -73.447,-17.334c1.263,12.335 26.122,78.476 0,79.746c-21.163,1.029 -19.293,-47.436 -41.932,-48.132c-18.177,-0.559 -15.568,56.016 -39.919,51.942c-18.229,-3.049 -7.024,-66.978 -9.478,-83.556c-2.498,-16.872 -66.368,-6.804 -73.447,17.334c-7.873,26.847 12.386,115.438 26.207,143.744c9.131,18.701 41.234,26.096 56.718,26.096c15.484,-0 20.965,-26.096 36.186,-26.096c15.222,0 30.181,26.096 45.665,26.096c15.484,-0 40.099,-9.584 47.24,-26.096c12.241,-28.306 34.08,-116.897 26.207,-143.744Z" style="fill:url(#_Linear1);"/><path id="Chip-Icon" serif:id="Chip Icon" d="M201.868,216.865c-0.007,-0.045 -0.01,-0.09 -0.01,-0.136l-0,-3.155c-0.008,-1.043 0.402,-2.046 1.137,-2.786l1.657,-1.666c0.404,-0.408 0.632,-0.959 0.634,-1.533l0,-7.933l1.763,0.052l0,7.934c-0,1.044 -0.416,2.047 -1.154,2.785l-1.631,1.604c-0.412,0.408 -0.644,0.964 -0.644,1.543l0,3.155c0,0.046 -0.003,0.091 -0.01,0.136c1.062,0.362 1.826,1.369 1.826,2.553c0,1.489 -1.208,2.697 -2.697,2.697c-1.489,0 -2.697,-1.208 -2.697,-2.697c-0,-1.184 0.764,-2.191 1.826,-2.553Zm-17.234,-17.157l-0,9.009c-0,1.673 -1.377,3.05 -3.05,3.05l-4.76,-0c-0.706,-0 -1.287,0.581 -1.287,1.287l0,3.561c0,0.483 -0.398,0.881 -0.881,0.881c-0.484,0 -0.882,-0.398 -0.882,-0.881l0,-3.579c0.01,-1.666 1.384,-3.032 3.05,-3.032l4.76,-0c0.706,-0 1.287,-0.581 1.287,-1.287l-0,-9.009l1.763,0Zm-22.295,9.91c-0.01,-0.053 -0.015,-0.106 -0.015,-0.161l-0.114,-15.866c-0.01,-2.16 1.754,-3.947 3.913,-3.966l11.389,-0.071l-0,1.763l-11.371,0.079c-1.191,0.005 -2.169,0.986 -2.169,2.177l0.115,15.884c0,0.055 -0.005,0.108 -0.015,0.161c1.064,0.361 1.831,1.369 1.831,2.554c-0,1.489 -1.209,2.698 -2.697,2.698c-1.489,-0 -2.698,-1.209 -2.698,-2.698c0,-1.185 0.767,-2.193 1.831,-2.554Zm34.001,-9.91l-0,12.729c-0,0.483 -0.398,0.881 -0.882,0.881c-0.483,0 -0.881,-0.398 -0.881,-0.881l-0,-12.729l1.763,0Zm20.643,-5.165l0,15.981c0,0.483 -0.398,0.881 -0.881,0.881c-0.484,0 -0.882,-0.398 -0.882,-0.881l0,-15.099l-1.824,-0l-0,-1.763l2.706,-0c0.483,-0 0.881,0.398 0.881,0.881Zm-24.795,5.165l-0,8.348c-0,0.483 -0.398,0.881 -0.882,0.881c-0.483,0 -0.881,-0.398 -0.881,-0.881l0,-8.348l1.763,0Zm8.303,0l0,8.348c0,0.483 -0.398,0.881 -0.881,0.881c-0.484,0 -0.882,-0.398 -0.882,-0.881l0,-8.348l1.763,0Zm3.279,0l0,5.483c0,0.484 -0.398,0.882 -0.881,0.882c-0.484,-0 -0.882,-0.398 -0.882,-0.882l0,-5.483l1.763,0Zm-15.443,0l0,5.148c0,0.484 -0.398,0.882 -0.881,0.882c-0.484,-0 -0.882,-0.398 -0.882,-0.882l0,-5.148l1.763,0Zm-12.472,3.896c-0,0.484 -0.398,0.882 -0.882,0.882l-2.133,-0c-1.673,-0 -3.05,-1.377 -3.05,-3.05l0,-4.725c0,-1.673 1.377,-3.049 3.05,-3.049l4.672,-0l-0,1.763l-4.672,-0c-0.706,-0 -1.287,0.581 -1.287,1.286l0,4.725c0,0.706 0.581,1.287 1.287,1.287l2.133,0c0.484,0 0.882,0.398 0.882,0.881Zm55.69,-4.178c0,0.484 -0.398,0.882 -0.881,0.882l-10.419,-0c-0.484,-0 -0.882,-0.398 -0.882,-0.882l0,-8.118l-5.958,0l-0,-1.763l6.84,0c0.483,0 0.881,0.398 0.881,0.882l0,8.118l9.538,-0c0.483,-0 0.881,0.398 0.881,0.881Zm-22.636,-33.856l-26.902,-0c-1.499,-0 -2.732,1.233 -2.732,2.732l-0,26.911c-0,1.499 1.233,2.733 2.732,2.733l26.902,-0c1.499,-0 2.733,-1.234 2.733,-2.733l-0,-26.911c-0,-1.499 -1.234,-2.732 -2.733,-2.732Zm-0.978,28.665l-24.945,-0l-0,-24.946l24.945,0l-0,24.946Zm-1.763,-23.183l-0,21.42l-21.42,-0l0,-21.42l21.42,0Zm-28.656,13.83l-0,1.763l-8.348,0c-0.483,0 -0.881,-0.398 -0.881,-0.881c-0,-0.484 0.398,-0.882 0.881,-0.882l8.348,0Zm45.122,0.882c-0,0.483 -0.398,0.881 -0.882,0.881l-8.347,0l-0,-1.763l8.347,0c0.484,0 0.882,0.398 0.882,0.882Zm3.732,-5.002c0.329,-1.118 1.363,-1.935 2.588,-1.935c1.488,-0 2.697,1.208 2.697,2.697c-0,1.489 -1.209,2.697 -2.697,2.697c-1.165,0 -2.159,-0.74 -2.536,-1.775c-0.09,0.031 -0.185,0.048 -0.285,0.048l-12.728,-0l-0,-1.763l12.728,-0c0.08,-0 0.158,0.011 0.233,0.031Zm-48.854,-0.031l-0,1.763l-12.729,-0c-0.483,-0 -0.881,-0.398 -0.881,-0.882c-0,-0.483 0.398,-0.881 0.881,-0.881l12.729,-0Zm-0,-4.143l-0,1.763l-8.348,-0c-0.483,-0 -0.881,-0.398 -0.881,-0.882c-0,-0.483 0.398,-0.881 0.881,-0.881l8.348,-0Zm45.122,0.881c-0,0.484 -0.398,0.882 -0.882,0.882l-8.347,-0l-0,-1.763l8.347,-0c0.484,-0 0.882,0.398 0.882,0.881Zm11.053,-10.066c-0,0.484 -0.398,0.881 -0.881,0.881l-6.541,0l0,4.346c0,0.484 -0.398,0.882 -0.881,0.882l-11.979,-0l-0,-1.763l11.097,-0l0,-4.346c0,-0.484 0.398,-0.881 0.882,-0.881l7.422,-0c0.483,-0 0.881,0.397 0.881,0.881Zm-78.179,-2.215c-0.362,1.062 -1.369,1.827 -2.554,1.827c-1.488,0 -2.697,-1.208 -2.697,-2.697c-0,-1.489 1.209,-2.697 2.697,-2.697c1.185,-0 2.192,0.765 2.554,1.827c0.047,-0.007 0.095,-0.012 0.144,-0.012l3.605,0c2.161,0 3.94,1.779 3.94,3.941l-0,2.194c0.005,1.193 0.984,2.173 2.177,2.178l12.138,-0l-0,1.763l-12.138,-0c-2.16,-0.005 -3.935,-1.781 -3.94,-3.941l-0,-2.194c-0.005,-1.193 -0.985,-2.173 -2.177,-2.178l-3.605,0c-0.049,0 -0.097,-0.004 -0.144,-0.011Zm15.667,-3.503c-1.071,-0.357 -1.843,-1.369 -1.843,-2.559c-0,-1.489 1.208,-2.697 2.697,-2.697c1.489,-0 2.697,1.208 2.697,2.697c0,1.19 -0.772,2.202 -1.843,2.559c0.018,0.07 0.027,0.143 0.027,0.218l0,4.028c0,1.194 0.983,2.177 2.178,2.177l2.432,-0.009l0,1.763l-2.432,0c-2.158,0 -3.936,-1.773 -3.94,-3.931l-0,-4.028c-0,-0.075 0.009,-0.148 0.027,-0.218Zm50.022,-5.247l-0,12.543c-0,0.483 -0.398,0.881 -0.882,0.881l-6.91,0l-0,-1.763l6.038,0l-0,-10.78l-3.341,0c-0.484,0 -0.882,-0.398 -0.882,-0.881l0,-8.268c0,-0.484 0.398,-0.882 0.882,-0.882c0.483,0 0.881,0.398 0.881,0.882l0,7.386l3.332,0c0.484,0 0.882,0.398 0.882,0.882Zm-29.009,-0.97l-0,8.339l-1.763,-0l0,-8.339c0,-0.483 0.398,-0.881 0.881,-0.881c0.484,-0 0.882,0.398 0.882,0.881Zm8.303,0l0,8.339l-1.763,-0l0,-8.339c0,-0.483 0.398,-0.881 0.882,-0.881c0.483,-0 0.881,0.398 0.881,0.881Zm-4.151,-4.39l-0,12.729l-1.763,-0l-0,-12.729c-0,-0.483 0.398,-0.881 0.881,-0.881c0.484,-0 0.882,0.398 0.882,0.881Zm10.709,-9.59l0,9.59c0,0.484 -0.398,0.882 -0.881,0.882l-2.398,-0l0,11.847l-1.763,-0l0,-12.729c0,-0.483 0.398,-0.881 0.882,-0.881l2.397,-0l0,-8.709c0,-0.483 0.398,-0.881 0.882,-0.881c0.483,-0 0.881,0.398 0.881,0.881Zm-29.464,5.41c-1.062,-0.362 -1.827,-1.37 -1.827,-2.554c-0,-1.489 1.208,-2.697 2.697,-2.697c1.488,-0 2.697,1.208 2.697,2.697c0,1.184 -0.765,2.192 -1.828,2.554c0.008,0.047 0.012,0.095 0.012,0.143l0,7.352c-0.002,0.741 0.294,1.453 0.82,1.974c4.125,4.125 4.478,3.931 4.478,7.44l-1.763,-0c-0,-2.645 0.194,-2.028 -3.958,-6.171c-0.859,-0.852 -1.342,-2.015 -1.34,-3.226l0,-7.369c0,-0.048 0.004,-0.096 0.012,-0.143Zm35.405,-1.479l0,13.152c0,0.483 -0.398,0.881 -0.881,0.881l-5.06,0l0,4.355l-1.763,-0l0,-5.236c0,-0.484 0.398,-0.882 0.882,-0.882l5.059,0l0,-12.27c0,-0.483 0.398,-0.881 0.882,-0.881c0.483,-0 0.881,0.398 0.881,0.881Zm-24.663,1.622l0,16.748l-1.763,0l0,-16.748c0,-0.483 0.398,-0.881 0.882,-0.881c0.483,-0 0.881,0.398 0.881,0.881Z" style="fill:#f4f4f4;fill-rule:nonzero;"/></g></g><defs><linearGradient id="_Linear1" x1="0" y1="0" x2="1" y2="0" gradientUnits="userSpaceOnUse" gradientTransform="matrix(168.424,111.543,-111.543,168.424,38.9335,72.2135)"><stop offset="0" style="stop-color:#ffad70;stop-opacity:1"/><stop offset="1" style="stop-color:#ff5446;stop-opacity:1"/></linearGradient></defs></svg>