<?xml version="1.0" encoding="UTF-8" standalone="no"?><!DOCTYPE svg PUBLIC "-//W3C//DTD SVG 1.1//EN" "http://www.w3.org/Graphics/SVG/1.1/DTD/svg11.dtd"><svg width="100%" height="100%" viewBox="0 0 187 153" version="1.1" xmlns="http://www.w3.org/2000/svg" xmlns:xlink="http://www.w3.org/1999/xlink" xml:space="preserve" xmlns:serif="http://www.serif.com/" style="fill-rule:evenodd;clip-rule:evenodd;stroke-linejoin:round;stroke-miterlimit:2;"><g><path d="M185.376,20.881c-5.468,-18.645 -58.304,-28.727 -56.734,-13.39c0.976,9.529 20.178,60.619 0,61.6c-16.347,0.795 -14.903,-36.641 -32.39,-37.179c-14.04,-0.432 -12.026,43.269 -30.835,40.123c-14.081,-2.356 -5.426,-51.738 -7.322,-64.544c-1.929,-13.033 -51.266,-5.255 -56.734,13.39c-6.082,20.738 9.568,89.17 20.244,111.035c7.053,14.446 31.851,20.158 43.812,20.158c11.96,-0 16.194,-20.158 27.952,-20.158c11.758,0 23.313,20.158 35.273,20.158c11.961,-0 30.975,-7.404 36.491,-20.158c9.455,-21.865 26.325,-90.297 20.243,-111.035Z" style="fill:url(#_Linear1);"/><path id="Chip-Icon" serif:id="Chip Icon" d="M136.918,132.256c-0.005,-0.034 -0.008,-0.069 -0.008,-0.105l-0,-2.443c-0.006,-0.807 0.311,-1.584 0.88,-2.156l1.283,-1.29c0.313,-0.316 0.49,-0.743 0.492,-1.188l-0,-6.142l1.365,0.041l-0,6.142c-0.001,0.809 -0.322,1.585 -0.894,2.157l-1.263,1.242c-0.319,0.315 -0.498,0.746 -0.498,1.194l-0,2.443c-0,0.036 -0.003,0.071 -0.008,0.105c0.822,0.281 1.414,1.06 1.414,1.977c-0,1.152 -0.936,2.088 -2.089,2.088c-1.152,0 -2.088,-0.936 -2.088,-2.088c0,-0.917 0.592,-1.696 1.414,-1.977Zm-13.343,-13.283l-0,6.975c-0,1.295 -1.066,2.361 -2.361,2.361l-3.686,0c-0.546,0 -0.996,0.45 -0.996,0.996l-0,2.758c-0,0.374 -0.308,0.682 -0.683,0.682c-0.374,0 -0.682,-0.308 -0.682,-0.682l-0,-2.771c0.007,-1.29 1.071,-2.348 2.361,-2.348l3.685,0c0.547,0 0.997,-0.45 0.997,-0.996l-0,-6.975l1.365,0Zm-17.262,7.672c-0.007,-0.04 -0.011,-0.082 -0.011,-0.124l-0.089,-12.284c-0.007,-1.672 1.358,-3.056 3.03,-3.071l8.818,-0.055l-0,1.365l-8.804,0.062c-0.922,0.003 -1.679,0.763 -1.679,1.685l0.089,12.298c-0,0.042 -0.004,0.084 -0.012,0.124c0.824,0.28 1.418,1.06 1.418,1.978c-0,1.153 -0.936,2.088 -2.089,2.088c-1.152,0 -2.088,-0.935 -2.088,-2.088c-0,-0.918 0.593,-1.698 1.417,-1.978Zm26.325,-7.672l-0,9.855c-0,0.374 -0.308,0.682 -0.683,0.682c-0.374,0 -0.682,-0.308 -0.682,-0.682l-0,-9.855l1.365,0Zm15.983,-3.999l-0,12.373c-0,0.374 -0.308,0.682 -0.683,0.682c-0.374,0 -0.682,-0.308 -0.682,-0.682l-0,-11.691l-1.413,0l0,-1.365l2.095,0c0.375,0 0.683,0.309 0.683,0.683Zm-19.198,3.999l0,6.463c0,0.374 -0.308,0.682 -0.682,0.682c-0.374,0 -0.683,-0.308 -0.683,-0.682l0,-6.463l1.365,0Zm6.429,0l0,6.463c0,0.374 -0.308,0.682 -0.682,0.682c-0.375,0 -0.683,-0.308 -0.683,-0.682l0,-6.463l1.365,0Zm2.539,0l-0,4.245c-0,0.374 -0.308,0.682 -0.683,0.682c-0.374,0 -0.682,-0.308 -0.682,-0.682l-0,-4.245l1.365,0Zm-11.957,0l0,3.986c0,0.374 -0.308,0.682 -0.682,0.682c-0.375,0 -0.683,-0.308 -0.683,-0.682l0,-3.986l1.365,0Zm-9.656,3.017c-0,0.374 -0.309,0.682 -0.683,0.682l-1.651,0c-1.296,0 -2.362,-1.066 -2.362,-2.361l0,-3.658c0,-1.296 1.066,-2.362 2.362,-2.362l3.617,0l-0,1.365l-3.617,0c-0.547,0 -0.997,0.45 -0.997,0.997l0,3.658c0,0.546 0.45,0.996 0.997,0.996l1.651,0c0.374,0 0.683,0.308 0.683,0.683Zm43.117,-3.235c0,0.374 -0.308,0.682 -0.682,0.682l-8.067,0c-0.374,0 -0.683,-0.308 -0.683,-0.682l0,-6.286l-4.613,0l0,-1.365l5.296,0c0.374,0 0.682,0.308 0.682,0.683l0,6.285l7.385,0c0.374,0 0.682,0.308 0.682,0.683Zm-17.525,-26.213l-20.829,-0c-1.161,-0 -2.116,0.955 -2.116,2.115l0,20.836c0,1.16 0.955,2.115 2.116,2.115l20.829,0c1.16,0 2.115,-0.955 2.115,-2.115l0,-20.836c0,-1.16 -0.955,-2.115 -2.115,-2.115Zm-0.758,22.193l-19.313,0l-0,-19.313l19.313,-0l0,19.313Zm-1.365,-17.948l0,16.583l-16.584,0l0,-16.583l16.584,-0Zm-22.186,10.707l-0,1.365l-6.463,0c-0.375,0 -0.683,-0.308 -0.683,-0.682c0,-0.375 0.308,-0.683 0.683,-0.683l6.463,0Zm34.934,0.683c0,0.374 -0.308,0.682 -0.682,0.682l-6.463,0l0,-1.365l6.463,0c0.374,0 0.682,0.308 0.682,0.683Zm2.89,-3.873c0.255,-0.866 1.056,-1.498 2.004,-1.498c1.152,-0 2.088,0.936 2.088,2.088c-0,1.153 -0.936,2.088 -2.088,2.088c-0.902,0 -1.672,-0.573 -1.963,-1.374c-0.07,0.024 -0.144,0.037 -0.221,0.037l-9.855,-0l0,-1.365l9.855,-0c0.062,-0 0.122,0.008 0.18,0.024Zm-37.824,-0.024l-0,1.365l-9.855,-0c-0.375,-0 -0.683,-0.308 -0.683,-0.683c0,-0.374 0.308,-0.682 0.683,-0.682l9.855,-0Zm-0,-3.208l-0,1.365l-6.463,0c-0.375,0 -0.683,-0.308 -0.683,-0.682c0,-0.375 0.308,-0.683 0.683,-0.683l6.463,0Zm34.934,0.683c0,0.374 -0.308,0.682 -0.682,0.682l-6.463,0l0,-1.365l6.463,0c0.374,0 0.682,0.308 0.682,0.683Zm8.558,-7.794c0,0.375 -0.308,0.683 -0.682,0.683l-5.064,-0l0,3.364c0,0.374 -0.308,0.683 -0.682,0.683l-9.275,-0l0,-1.365l8.592,-0l0,-3.365c0,-0.374 0.308,-0.682 0.683,-0.682l5.746,-0c0.374,-0 0.682,0.308 0.682,0.682Zm-60.528,-1.715c-0.281,0.823 -1.061,1.415 -1.978,1.415c-1.152,-0 -2.088,-0.936 -2.088,-2.088c0,-1.153 0.936,-2.089 2.088,-2.089c0.917,0 1.697,0.593 1.978,1.415c0.036,-0.006 0.073,-0.009 0.111,-0.009l2.791,0c1.673,0 3.05,1.377 3.05,3.051l0,1.699c0.004,0.923 0.763,1.682 1.686,1.686l9.398,-0l-0,1.365l-9.398,-0c-1.672,-0.004 -3.047,-1.379 -3.05,-3.051l-0,-1.699c-0.004,-0.924 -0.763,-1.682 -1.686,-1.686l-2.791,0c-0.038,0 -0.075,-0.003 -0.111,-0.009Zm12.13,-2.712c-0.829,-0.277 -1.428,-1.06 -1.428,-1.981c0,-1.153 0.936,-2.088 2.089,-2.088c1.152,-0 2.088,0.935 2.088,2.088c-0,0.921 -0.598,1.704 -1.427,1.981c0.014,0.054 0.021,0.111 0.021,0.169l0,3.118c0,0.925 0.761,1.686 1.686,1.686l1.883,-0.007l0,1.365l-1.883,0c-1.671,0 -3.047,-1.373 -3.051,-3.044l0,-3.118c0,-0.058 0.008,-0.115 0.022,-0.169Zm38.728,-4.063l-0,9.712c-0,0.374 -0.308,0.682 -0.682,0.682l-5.351,0l0,-1.365l4.675,0l-0,-8.346l-2.587,-0c-0.374,-0 -0.682,-0.308 -0.682,-0.683l-0,-6.401c-0,-0.374 0.308,-0.682 0.682,-0.682c0.375,-0 0.683,0.308 0.683,0.682l-0,5.719l2.58,-0c0.374,-0 0.682,0.308 0.682,0.682Zm-22.46,-0.75l0,6.456l-1.365,-0l0,-6.456c0,-0.375 0.309,-0.683 0.683,-0.683c0.374,0 0.682,0.308 0.682,0.683Zm6.429,-0l0,6.456l-1.365,-0l0,-6.456c0,-0.375 0.308,-0.683 0.683,-0.683c0.374,0 0.682,0.308 0.682,0.683Zm-3.214,-3.399l-0,9.855l-1.365,-0l-0,-9.855c-0,-0.374 0.308,-0.682 0.682,-0.682c0.375,-0 0.683,0.308 0.683,0.682Zm8.292,-7.425l-0,7.425c-0,0.374 -0.308,0.683 -0.683,0.683l-1.856,-0l-0,9.172l-1.365,-0l-0,-9.855c-0,-0.374 0.308,-0.682 0.682,-0.682l1.857,-0l-0,-6.743c-0,-0.374 0.308,-0.682 0.682,-0.682c0.375,-0 0.683,0.308 0.683,0.682Zm-22.813,4.188c-0.822,-0.28 -1.415,-1.06 -1.415,-1.977c0,-1.152 0.936,-2.088 2.089,-2.088c1.152,-0 2.088,0.936 2.088,2.088c0,0.917 -0.592,1.697 -1.415,1.977c0.006,0.037 0.009,0.074 0.009,0.111l0,5.692c-0.002,0.574 0.227,1.125 0.635,1.529c3.194,3.194 3.467,3.044 3.467,5.76l-1.365,-0c-0,-2.048 0.15,-1.57 -3.064,-4.777c-0.666,-0.661 -1.04,-1.561 -1.038,-2.498l0,-5.706c0,-0.037 0.003,-0.074 0.009,-0.111Zm27.412,-1.144l0,10.182c0,0.374 -0.308,0.682 -0.682,0.682l-3.917,0l-0,3.372l-1.365,-0l-0,-4.054c-0,-0.374 0.308,-0.683 0.682,-0.683l3.917,0l0,-9.499c0,-0.375 0.308,-0.683 0.683,-0.683c0.374,0 0.682,0.308 0.682,0.683Zm-19.095,1.255l0,12.967l-1.365,0l0,-12.967c0,-0.374 0.308,-0.682 0.683,-0.682c0.374,-0 0.682,0.308 0.682,0.682Z" style="fill:#f4f4f4;fill-rule:nonzero;"/></g><defs><linearGradient id="_Linear1" x1="0" y1="0" x2="1" y2="0" gradientUnits="userSpaceOnUse" gradientTransform="matrix(130.099,86.161,-86.161,130.099,12.4826,20.8931)"><stop offset="0" style="stop-color:#ffad70;stop-opacity:1"/><stop offset="1" style="stop-color:#ff5446;stop-opacity:1"/></linearGradient></defs></svg>